<mxfile host="app.diagrams.net" modified="2021-01-06T04:33:32.544Z" agent="5.0 (Macintosh; Intel Mac OS X 10_15_6) AppleWebKit/605.1.15 (KHTML, like Gecko) Version/14.0.1 Safari/605.1.15" etag="vafby5x8yv4D6Dy4hDQi" version="14.1.8" type="github">
  <diagram id="HsRst7q5kCrWygoYp_iJ" name="Page-1">
    <mxGraphModel dx="2181" dy="780" grid="1" gridSize="10" guides="1" tooltips="1" connect="1" arrows="1" fold="1" page="1" pageScale="1" pageWidth="850" pageHeight="1100" math="0" shadow="0">
      <root>
        <mxCell id="0" />
        <mxCell id="1" parent="0" />
        <mxCell id="tVVRwUT3cbNP9ZpOm8E_-2" value="" style="rounded=0;whiteSpace=wrap;html=1;direction=south;" parent="1" vertex="1">
          <mxGeometry x="40" y="50" width="60" height="630" as="geometry" />
        </mxCell>
        <mxCell id="tVVRwUT3cbNP9ZpOm8E_-3" style="edgeStyle=orthogonalEdgeStyle;rounded=0;orthogonalLoop=1;jettySize=auto;html=1;exitX=1;exitY=0.5;exitDx=0;exitDy=0;" parent="1" source="tVVRwUT3cbNP9ZpOm8E_-2" target="tVVRwUT3cbNP9ZpOm8E_-2" edge="1">
          <mxGeometry relative="1" as="geometry" />
        </mxCell>
        <mxCell id="tVVRwUT3cbNP9ZpOm8E_-4" value="" style="endArrow=none;html=1;" parent="1" edge="1">
          <mxGeometry width="50" height="50" relative="1" as="geometry">
            <mxPoint x="40" y="359.17" as="sourcePoint" />
            <mxPoint x="100" y="359.17" as="targetPoint" />
          </mxGeometry>
        </mxCell>
        <mxCell id="tVVRwUT3cbNP9ZpOm8E_-5" value="" style="endArrow=none;html=1;" parent="1" edge="1">
          <mxGeometry width="50" height="50" relative="1" as="geometry">
            <mxPoint x="40" y="210.00000000000009" as="sourcePoint" />
            <mxPoint x="100" y="210.00000000000009" as="targetPoint" />
          </mxGeometry>
        </mxCell>
        <mxCell id="tVVRwUT3cbNP9ZpOm8E_-6" value="" style="endArrow=none;html=1;" parent="1" edge="1">
          <mxGeometry width="50" height="50" relative="1" as="geometry">
            <mxPoint x="40" y="520.0000000000001" as="sourcePoint" />
            <mxPoint x="100" y="520.0000000000001" as="targetPoint" />
          </mxGeometry>
        </mxCell>
        <mxCell id="tVVRwUT3cbNP9ZpOm8E_-7" value="" style="endArrow=none;html=1;" parent="1" edge="1">
          <mxGeometry width="50" height="50" relative="1" as="geometry">
            <mxPoint x="40" y="130.00000000000006" as="sourcePoint" />
            <mxPoint x="100" y="130.00000000000006" as="targetPoint" />
          </mxGeometry>
        </mxCell>
        <mxCell id="tVVRwUT3cbNP9ZpOm8E_-8" value="" style="endArrow=none;html=1;" parent="1" edge="1">
          <mxGeometry width="50" height="50" relative="1" as="geometry">
            <mxPoint x="40" y="440.00000000000006" as="sourcePoint" />
            <mxPoint x="100" y="440.00000000000006" as="targetPoint" />
          </mxGeometry>
        </mxCell>
        <mxCell id="tVVRwUT3cbNP9ZpOm8E_-9" value="" style="endArrow=none;html=1;" parent="1" edge="1">
          <mxGeometry width="50" height="50" relative="1" as="geometry">
            <mxPoint x="40" y="600.0000000000001" as="sourcePoint" />
            <mxPoint x="100" y="600.0000000000001" as="targetPoint" />
          </mxGeometry>
        </mxCell>
        <mxCell id="tVVRwUT3cbNP9ZpOm8E_-10" value="" style="endArrow=none;html=1;" parent="1" edge="1">
          <mxGeometry width="50" height="50" relative="1" as="geometry">
            <mxPoint x="40" y="280.0000000000001" as="sourcePoint" />
            <mxPoint x="100" y="280.0000000000001" as="targetPoint" />
          </mxGeometry>
        </mxCell>
        <mxCell id="tVVRwUT3cbNP9ZpOm8E_-14" value="" style="html=1;shadow=0;dashed=0;align=center;verticalAlign=middle;shape=mxgraph.arrows2.arrow;dy=0.6;dx=40;notch=0;fillColor=#000000;" parent="1" vertex="1">
          <mxGeometry x="120" y="330" width="80" height="60" as="geometry" />
        </mxCell>
        <mxCell id="tVVRwUT3cbNP9ZpOm8E_-26" value="" style="group" parent="1" vertex="1" connectable="0">
          <mxGeometry x="410" y="50" width="60" height="630" as="geometry" />
        </mxCell>
        <mxCell id="tVVRwUT3cbNP9ZpOm8E_-17" value="" style="rounded=0;whiteSpace=wrap;html=1;direction=south;" parent="tVVRwUT3cbNP9ZpOm8E_-26" vertex="1">
          <mxGeometry width="60" height="630" as="geometry" />
        </mxCell>
        <mxCell id="tVVRwUT3cbNP9ZpOm8E_-18" style="edgeStyle=orthogonalEdgeStyle;rounded=0;orthogonalLoop=1;jettySize=auto;html=1;exitX=1;exitY=0.5;exitDx=0;exitDy=0;" parent="tVVRwUT3cbNP9ZpOm8E_-26" source="tVVRwUT3cbNP9ZpOm8E_-17" target="tVVRwUT3cbNP9ZpOm8E_-17" edge="1">
          <mxGeometry relative="1" as="geometry" />
        </mxCell>
        <mxCell id="tVVRwUT3cbNP9ZpOm8E_-19" value="" style="endArrow=none;html=1;" parent="tVVRwUT3cbNP9ZpOm8E_-26" edge="1">
          <mxGeometry width="50" height="50" relative="1" as="geometry">
            <mxPoint y="309.1700000000001" as="sourcePoint" />
            <mxPoint x="60" y="309.1700000000001" as="targetPoint" />
          </mxGeometry>
        </mxCell>
        <mxCell id="tVVRwUT3cbNP9ZpOm8E_-20" value="" style="endArrow=none;html=1;" parent="tVVRwUT3cbNP9ZpOm8E_-26" edge="1">
          <mxGeometry width="50" height="50" relative="1" as="geometry">
            <mxPoint y="160.0000000000001" as="sourcePoint" />
            <mxPoint x="60" y="160.0000000000001" as="targetPoint" />
          </mxGeometry>
        </mxCell>
        <mxCell id="tVVRwUT3cbNP9ZpOm8E_-21" value="" style="endArrow=none;html=1;" parent="tVVRwUT3cbNP9ZpOm8E_-26" edge="1">
          <mxGeometry width="50" height="50" relative="1" as="geometry">
            <mxPoint y="469.99999999999994" as="sourcePoint" />
            <mxPoint x="60" y="469.99999999999994" as="targetPoint" />
          </mxGeometry>
        </mxCell>
        <mxCell id="tVVRwUT3cbNP9ZpOm8E_-22" value="" style="endArrow=none;html=1;" parent="tVVRwUT3cbNP9ZpOm8E_-26" edge="1">
          <mxGeometry width="50" height="50" relative="1" as="geometry">
            <mxPoint y="80" as="sourcePoint" />
            <mxPoint x="60" y="80" as="targetPoint" />
          </mxGeometry>
        </mxCell>
        <mxCell id="tVVRwUT3cbNP9ZpOm8E_-23" value="" style="endArrow=none;html=1;" parent="tVVRwUT3cbNP9ZpOm8E_-26" edge="1">
          <mxGeometry width="50" height="50" relative="1" as="geometry">
            <mxPoint y="390" as="sourcePoint" />
            <mxPoint x="60" y="390" as="targetPoint" />
          </mxGeometry>
        </mxCell>
        <mxCell id="tVVRwUT3cbNP9ZpOm8E_-24" value="" style="endArrow=none;html=1;" parent="tVVRwUT3cbNP9ZpOm8E_-26" edge="1">
          <mxGeometry width="50" height="50" relative="1" as="geometry">
            <mxPoint y="550" as="sourcePoint" />
            <mxPoint x="60" y="550" as="targetPoint" />
          </mxGeometry>
        </mxCell>
        <mxCell id="tVVRwUT3cbNP9ZpOm8E_-25" value="" style="endArrow=none;html=1;" parent="tVVRwUT3cbNP9ZpOm8E_-26" edge="1">
          <mxGeometry width="50" height="50" relative="1" as="geometry">
            <mxPoint y="230.00000000000003" as="sourcePoint" />
            <mxPoint x="60" y="230.00000000000003" as="targetPoint" />
          </mxGeometry>
        </mxCell>
        <mxCell id="tVVRwUT3cbNP9ZpOm8E_-52" value="" style="rounded=0;whiteSpace=wrap;html=1;fillColor=#000000;" parent="tVVRwUT3cbNP9ZpOm8E_-26" vertex="1">
          <mxGeometry width="60" height="80" as="geometry" />
        </mxCell>
        <mxCell id="tVVRwUT3cbNP9ZpOm8E_-53" value="" style="rounded=0;whiteSpace=wrap;html=1;fillColor=#000000;" parent="tVVRwUT3cbNP9ZpOm8E_-26" vertex="1">
          <mxGeometry y="550" width="60" height="80" as="geometry" />
        </mxCell>
        <mxCell id="tVVRwUT3cbNP9ZpOm8E_-55" value="" style="rounded=0;whiteSpace=wrap;html=1;fillColor=#000000;" parent="tVVRwUT3cbNP9ZpOm8E_-26" vertex="1">
          <mxGeometry y="310" width="60" height="80" as="geometry" />
        </mxCell>
        <mxCell id="tVVRwUT3cbNP9ZpOm8E_-56" value="" style="rounded=0;whiteSpace=wrap;html=1;fillColor=#000000;" parent="tVVRwUT3cbNP9ZpOm8E_-26" vertex="1">
          <mxGeometry y="80" width="60" height="80" as="geometry" />
        </mxCell>
        <mxCell id="tVVRwUT3cbNP9ZpOm8E_-30" value="&lt;font style=&quot;font-size: 40px&quot;&gt;. . . .&lt;/font&gt;" style="text;html=1;align=center;verticalAlign=middle;resizable=0;points=[];autosize=1;" parent="1" vertex="1">
          <mxGeometry x="210" y="332" width="90" height="30" as="geometry" />
        </mxCell>
        <mxCell id="tVVRwUT3cbNP9ZpOm8E_-44" value="" style="rounded=0;whiteSpace=wrap;html=1;fillColor=#000000;" parent="1" vertex="1">
          <mxGeometry x="40" y="50" width="60" height="80" as="geometry" />
        </mxCell>
        <mxCell id="tVVRwUT3cbNP9ZpOm8E_-45" value="" style="rounded=0;whiteSpace=wrap;html=1;fillColor=#000000;" parent="1" vertex="1">
          <mxGeometry x="40" y="280" width="60" height="80" as="geometry" />
        </mxCell>
        <mxCell id="tVVRwUT3cbNP9ZpOm8E_-47" value="" style="rounded=0;whiteSpace=wrap;html=1;fillColor=#000000;" parent="1" vertex="1">
          <mxGeometry x="40" y="440" width="60" height="80" as="geometry" />
        </mxCell>
        <mxCell id="tVVRwUT3cbNP9ZpOm8E_-48" value="" style="rounded=0;whiteSpace=wrap;html=1;fillColor=#000000;" parent="1" vertex="1">
          <mxGeometry x="40" y="520" width="60" height="80" as="geometry" />
        </mxCell>
        <mxCell id="tVVRwUT3cbNP9ZpOm8E_-50" value="" style="endArrow=none;dashed=1;html=1;dashPattern=1 3;strokeWidth=2;fontColor=#FFFFFF;strokeColor=#FFFFFF;" parent="1" target="tVVRwUT3cbNP9ZpOm8E_-47" edge="1">
          <mxGeometry width="50" height="50" relative="1" as="geometry">
            <mxPoint x="40" y="520" as="sourcePoint" />
            <mxPoint x="90" y="470" as="targetPoint" />
          </mxGeometry>
        </mxCell>
        <mxCell id="tVVRwUT3cbNP9ZpOm8E_-51" value="" style="endArrow=none;html=1;strokeColor=#FFFFFF;fontColor=#FFFFFF;" parent="1" target="tVVRwUT3cbNP9ZpOm8E_-47" edge="1">
          <mxGeometry width="50" height="50" relative="1" as="geometry">
            <mxPoint x="40" y="520" as="sourcePoint" />
            <mxPoint x="90" y="470" as="targetPoint" />
          </mxGeometry>
        </mxCell>
        <mxCell id="tVVRwUT3cbNP9ZpOm8E_-75" value="&lt;font style=&quot;font-size: 35px&quot;&gt;&lt;b style=&quot;background-color: rgb(0 , 0 , 0)&quot;&gt;&lt;font style=&quot;font-size: 35px&quot;&gt;OUTPUT&lt;/font&gt;=1&lt;/b&gt;&lt;/font&gt;" style="text;html=1;align=center;verticalAlign=middle;resizable=0;points=[];autosize=1;fontColor=#FFFFFF;" parent="1" vertex="1">
          <mxGeometry x="520" y="220" width="200" height="30" as="geometry" />
        </mxCell>
        <mxCell id="tVVRwUT3cbNP9ZpOm8E_-79" value="" style="html=1;shadow=0;dashed=0;align=center;verticalAlign=middle;shape=mxgraph.arrows2.arrow;dy=0.6;dx=40;notch=0;fillColor=#000000;" parent="1" vertex="1">
          <mxGeometry x="310" y="330" width="80" height="60" as="geometry" />
        </mxCell>
        <mxCell id="tVVRwUT3cbNP9ZpOm8E_-80" value="" style="group" parent="1" vertex="1" connectable="0">
          <mxGeometry x="590" y="280" width="60" height="160" as="geometry" />
        </mxCell>
        <mxCell id="tVVRwUT3cbNP9ZpOm8E_-68" value="" style="rounded=0;whiteSpace=wrap;html=1;fillColor=#000000;" parent="tVVRwUT3cbNP9ZpOm8E_-80" vertex="1">
          <mxGeometry width="60" height="80" as="geometry" />
        </mxCell>
        <mxCell id="tVVRwUT3cbNP9ZpOm8E_-69" value="" style="rounded=0;whiteSpace=wrap;html=1;fillColor=#000000;" parent="tVVRwUT3cbNP9ZpOm8E_-80" vertex="1">
          <mxGeometry y="80" width="60" height="80" as="geometry" />
        </mxCell>
        <mxCell id="tVVRwUT3cbNP9ZpOm8E_-82" style="edgeStyle=orthogonalEdgeStyle;rounded=0;orthogonalLoop=1;jettySize=auto;html=1;entryX=0;entryY=0.5;entryDx=0;entryDy=0;strokeColor=#000000;fontColor=#FFFFFF;" parent="1" source="tVVRwUT3cbNP9ZpOm8E_-55" target="tVVRwUT3cbNP9ZpOm8E_-68" edge="1">
          <mxGeometry relative="1" as="geometry">
            <Array as="points">
              <mxPoint x="510" y="400" />
              <mxPoint x="510" y="320" />
            </Array>
          </mxGeometry>
        </mxCell>
        <mxCell id="tVVRwUT3cbNP9ZpOm8E_-83" style="edgeStyle=orthogonalEdgeStyle;rounded=0;orthogonalLoop=1;jettySize=auto;html=1;exitX=1;exitY=0.5;exitDx=0;exitDy=0;entryX=0;entryY=0.5;entryDx=0;entryDy=0;strokeColor=#000000;fontColor=#FFFFFF;" parent="1" source="tVVRwUT3cbNP9ZpOm8E_-53" target="tVVRwUT3cbNP9ZpOm8E_-69" edge="1">
          <mxGeometry relative="1" as="geometry">
            <Array as="points">
              <mxPoint x="540" y="640" />
              <mxPoint x="540" y="400" />
            </Array>
          </mxGeometry>
        </mxCell>
        <mxCell id="u7E_E4whKXJ_nsZYF88y-1" value="&lt;span style=&quot;font-size: 35px ; background-color: rgb(0 , 0 , 0)&quot;&gt;&lt;b&gt;[1 0 0 1 0 1 1 0]&lt;/b&gt;&lt;/span&gt;" style="text;html=1;align=center;verticalAlign=middle;resizable=0;points=[];autosize=1;fontColor=#FFFFFF;" vertex="1" parent="1">
          <mxGeometry x="-50" y="710" width="260" height="30" as="geometry" />
        </mxCell>
      </root>
    </mxGraphModel>
  </diagram>
</mxfile>
